<mxfile host="app.diagrams.net" modified="2024-02-28T13:15:05.104Z" agent="Mozilla/5.0 (Windows NT 10.0; Win64; x64) AppleWebKit/537.36 (KHTML, like Gecko) Chrome/121.0.0.0 Safari/537.36" etag="vSYBSORufOelCN7ZeMG-" version="23.1.7" type="github">
  <diagram name="Side-1" id="1ILyYnqGWZsY2s6GhCS1">
    <mxGraphModel dx="2074" dy="1106" grid="1" gridSize="10" guides="1" tooltips="1" connect="1" arrows="1" fold="1" page="1" pageScale="1" pageWidth="827" pageHeight="1169" math="0" shadow="0">
      <root>
        <mxCell id="0" />
        <mxCell id="1" parent="0" />
        <mxCell id="QTKivFQRaJvIcysJb6Of-10" value="&lt;p style=&quot;margin:0px;margin-top:6px;text-align:center;&quot;&gt;&lt;b&gt;Customer&lt;/b&gt;&lt;/p&gt;&lt;hr&gt;&lt;p style=&quot;margin:0px;margin-left:8px;&quot;&gt;Name&lt;br&gt;Adress&lt;/p&gt;&lt;p style=&quot;margin:0px;margin-left:8px;&quot;&gt;Phone&lt;/p&gt;" style="align=left;overflow=fill;html=1;dropTarget=0;whiteSpace=wrap;" vertex="1" parent="1">
          <mxGeometry x="50" y="750" width="180" height="90" as="geometry" />
        </mxCell>
        <mxCell id="QTKivFQRaJvIcysJb6Of-11" value="" style="shape=component;jettyWidth=8;jettyHeight=4;" vertex="1" parent="QTKivFQRaJvIcysJb6Of-10">
          <mxGeometry x="1" width="20" height="20" relative="1" as="geometry">
            <mxPoint x="-24" y="4" as="offset" />
          </mxGeometry>
        </mxCell>
        <mxCell id="QTKivFQRaJvIcysJb6Of-26" style="edgeStyle=orthogonalEdgeStyle;rounded=0;orthogonalLoop=1;jettySize=auto;html=1;entryX=0.811;entryY=1.011;entryDx=0;entryDy=0;entryPerimeter=0;" edge="1" parent="1" source="QTKivFQRaJvIcysJb6Of-12" target="QTKivFQRaJvIcysJb6Of-22">
          <mxGeometry relative="1" as="geometry">
            <mxPoint x="430" y="370" as="targetPoint" />
          </mxGeometry>
        </mxCell>
        <mxCell id="QTKivFQRaJvIcysJb6Of-12" value="&lt;p style=&quot;margin:0px;margin-top:6px;text-align:center;&quot;&gt;&lt;b&gt;Topping&lt;/b&gt;&lt;/p&gt;&lt;hr&gt;&lt;p style=&quot;margin:0px;margin-left:8px;&quot;&gt;Name&lt;br&gt;Price&lt;/p&gt;" style="align=left;overflow=fill;html=1;dropTarget=0;whiteSpace=wrap;" vertex="1" parent="1">
          <mxGeometry x="420" y="510" width="180" height="90" as="geometry" />
        </mxCell>
        <mxCell id="QTKivFQRaJvIcysJb6Of-13" value="" style="shape=component;jettyWidth=8;jettyHeight=4;" vertex="1" parent="QTKivFQRaJvIcysJb6Of-12">
          <mxGeometry x="1" width="20" height="20" relative="1" as="geometry">
            <mxPoint x="-24" y="4" as="offset" />
          </mxGeometry>
        </mxCell>
        <mxCell id="QTKivFQRaJvIcysJb6Of-16" value="&lt;p style=&quot;margin:0px;margin-top:6px;text-align:center;&quot;&gt;&lt;b&gt;DeliveryStaff&lt;/b&gt;&lt;/p&gt;&lt;hr&gt;&lt;p style=&quot;margin:0px;margin-left:8px;&quot;&gt;StaffID&lt;br&gt;Name&lt;br&gt;Delivery&lt;/p&gt;" style="align=left;overflow=fill;html=1;dropTarget=0;whiteSpace=wrap;" vertex="1" parent="1">
          <mxGeometry x="310" y="750" width="180" height="90" as="geometry" />
        </mxCell>
        <mxCell id="QTKivFQRaJvIcysJb6Of-17" value="" style="shape=component;jettyWidth=8;jettyHeight=4;" vertex="1" parent="QTKivFQRaJvIcysJb6Of-16">
          <mxGeometry x="1" width="20" height="20" relative="1" as="geometry">
            <mxPoint x="-24" y="4" as="offset" />
          </mxGeometry>
        </mxCell>
        <mxCell id="QTKivFQRaJvIcysJb6Of-27" style="edgeStyle=orthogonalEdgeStyle;rounded=0;orthogonalLoop=1;jettySize=auto;html=1;entryX=0.217;entryY=0.989;entryDx=0;entryDy=0;entryPerimeter=0;" edge="1" parent="1" source="QTKivFQRaJvIcysJb6Of-20" target="QTKivFQRaJvIcysJb6Of-22">
          <mxGeometry relative="1" as="geometry">
            <mxPoint x="320" y="370" as="targetPoint" />
          </mxGeometry>
        </mxCell>
        <mxCell id="QTKivFQRaJvIcysJb6Of-20" value="&lt;p style=&quot;margin:0px;margin-top:6px;text-align:center;&quot;&gt;&lt;b&gt;Order&lt;/b&gt;&lt;/p&gt;&lt;hr&gt;&lt;p style=&quot;margin:0px;margin-left:8px;&quot;&gt;OrderID&lt;br&gt;Order Date&lt;/p&gt;&lt;p style=&quot;margin:0px;margin-left:8px;&quot;&gt;Total Price&lt;/p&gt;" style="align=left;overflow=fill;html=1;dropTarget=0;whiteSpace=wrap;" vertex="1" parent="1">
          <mxGeometry x="180" y="510" width="180" height="90" as="geometry" />
        </mxCell>
        <mxCell id="QTKivFQRaJvIcysJb6Of-21" value="" style="shape=component;jettyWidth=8;jettyHeight=4;" vertex="1" parent="QTKivFQRaJvIcysJb6Of-20">
          <mxGeometry x="1" width="20" height="20" relative="1" as="geometry">
            <mxPoint x="-24" y="4" as="offset" />
          </mxGeometry>
        </mxCell>
        <mxCell id="QTKivFQRaJvIcysJb6Of-28" style="edgeStyle=orthogonalEdgeStyle;rounded=0;orthogonalLoop=1;jettySize=auto;html=1;entryX=0.5;entryY=1;entryDx=0;entryDy=0;" edge="1" parent="1" source="QTKivFQRaJvIcysJb6Of-22" target="QTKivFQRaJvIcysJb6Of-24">
          <mxGeometry relative="1" as="geometry">
            <mxPoint x="370" y="140" as="targetPoint" />
          </mxGeometry>
        </mxCell>
        <mxCell id="QTKivFQRaJvIcysJb6Of-22" value="&lt;p style=&quot;margin:0px;margin-top:6px;text-align:center;&quot;&gt;&lt;b&gt;Pizza&lt;/b&gt;&lt;/p&gt;&lt;hr&gt;&lt;p style=&quot;margin:0px;margin-left:8px;&quot;&gt;Name&lt;br&gt;Price&lt;/p&gt;&lt;p style=&quot;margin:0px;margin-left:8px;&quot;&gt;Size&lt;/p&gt;" style="align=left;overflow=fill;html=1;dropTarget=0;whiteSpace=wrap;" vertex="1" parent="1">
          <mxGeometry x="280" y="240" width="180" height="90" as="geometry" />
        </mxCell>
        <mxCell id="QTKivFQRaJvIcysJb6Of-23" value="" style="shape=component;jettyWidth=8;jettyHeight=4;" vertex="1" parent="QTKivFQRaJvIcysJb6Of-22">
          <mxGeometry x="1" width="20" height="20" relative="1" as="geometry">
            <mxPoint x="-24" y="4" as="offset" />
          </mxGeometry>
        </mxCell>
        <mxCell id="QTKivFQRaJvIcysJb6Of-24" value="&lt;p style=&quot;margin:0px;margin-top:6px;text-align:center;&quot;&gt;&lt;b&gt;Menu&lt;/b&gt;&lt;/p&gt;&lt;hr&gt;&lt;p style=&quot;margin:0px;margin-left:8px;&quot;&gt;MenuID&lt;br&gt;List of Available Pizzas&lt;/p&gt;" style="align=left;overflow=fill;html=1;dropTarget=0;whiteSpace=wrap;" vertex="1" parent="1">
          <mxGeometry x="280" y="40" width="180" height="90" as="geometry" />
        </mxCell>
        <mxCell id="QTKivFQRaJvIcysJb6Of-25" value="" style="shape=component;jettyWidth=8;jettyHeight=4;" vertex="1" parent="QTKivFQRaJvIcysJb6Of-24">
          <mxGeometry x="1" width="20" height="20" relative="1" as="geometry">
            <mxPoint x="-24" y="4" as="offset" />
          </mxGeometry>
        </mxCell>
        <mxCell id="QTKivFQRaJvIcysJb6Of-29" style="edgeStyle=orthogonalEdgeStyle;rounded=0;orthogonalLoop=1;jettySize=auto;html=1;entryX=0.628;entryY=1.011;entryDx=0;entryDy=0;entryPerimeter=0;" edge="1" parent="1" source="QTKivFQRaJvIcysJb6Of-16" target="QTKivFQRaJvIcysJb6Of-20">
          <mxGeometry relative="1" as="geometry" />
        </mxCell>
        <mxCell id="QTKivFQRaJvIcysJb6Of-30" style="edgeStyle=orthogonalEdgeStyle;rounded=0;orthogonalLoop=1;jettySize=auto;html=1;entryX=0.3;entryY=1.011;entryDx=0;entryDy=0;entryPerimeter=0;" edge="1" parent="1" source="QTKivFQRaJvIcysJb6Of-10" target="QTKivFQRaJvIcysJb6Of-20">
          <mxGeometry relative="1" as="geometry" />
        </mxCell>
      </root>
    </mxGraphModel>
  </diagram>
</mxfile>
